<svg width="60" height="60" viewBox="0 0 60 60" fill="none" xmlns="http://www.w3.org/2000/svg">
<circle cx="30" cy="30" r="30" fill="white"/>
<path d="M45.42 30.76H44.52C44.3508 25.2196 41.1828 20.5864 36.4596 18.52H42.36V19.42C42.36 19.5632 42.4169 19.7006 42.5182 19.8018C42.6194 19.9031 42.7568 19.96 42.9 19.96C43.0432 19.96 43.1806 19.9031 43.2818 19.8018C43.3831 19.7006 43.44 19.5632 43.44 19.42V16.54C43.44 16.3968 43.3831 16.2594 43.2818 16.1582C43.1806 16.0569 43.0432 16 42.9 16C42.7568 16 42.6194 16.0569 42.5182 16.1582C42.4169 16.2594 42.36 16.3968 42.36 16.54V17.44H32.64V16.54C32.64 16.3968 32.5831 16.2594 32.4818 16.1582C32.3806 16.0569 32.2432 16 32.1 16H29.22C29.0768 16 28.9394 16.0569 28.8382 16.1582C28.7369 16.2594 28.68 16.3968 28.68 16.54V17.44H18.96V16.54C18.96 16.3968 18.9031 16.2594 18.8018 16.1582C18.7006 16.0569 18.5632 16 18.42 16C18.2768 16 18.1394 16.0569 18.0382 16.1582C17.9369 16.2594 17.88 16.3968 17.88 16.54V19.42C17.88 19.5632 17.9369 19.7006 18.0382 19.8018C18.1394 19.9031 18.2768 19.96 18.42 19.96C18.5632 19.96 18.7006 19.9031 18.8018 19.8018C18.9031 19.7006 18.96 19.5632 18.96 19.42V18.52H24.8424C22.3678 19.5749 20.2547 21.3289 18.7623 23.567C17.2698 25.8051 16.4627 28.43 16.44 31.12H15.54C15.3968 31.12 15.2594 31.1769 15.1582 31.2782C15.0569 31.3794 15 31.5168 15 31.66V34.54C15 34.6832 15.0569 34.8206 15.1582 34.9218C15.2594 35.0231 15.3968 35.08 15.54 35.08H18.42C18.5632 35.08 18.7006 35.0231 18.8018 34.9218C18.9031 34.8206 18.96 34.6832 18.96 34.54V31.66C18.96 31.5168 18.9031 31.3794 18.8018 31.2782C18.7006 31.1769 18.5632 31.12 18.42 31.12H17.52C17.556 28.0346 18.705 25.066 20.7554 22.7602C22.8059 20.4545 25.6199 18.9666 28.68 18.5704V19.42C28.68 19.5632 28.7369 19.7006 28.8382 19.8018C28.9394 19.9031 29.0768 19.96 29.22 19.96H30.1488L24.5436 34.1836C24.4962 34.3076 24.4962 34.4448 24.5436 34.5688L26.5524 40.0372L26.52 43.5364C26.5195 43.6076 26.5331 43.6782 26.5601 43.7442C26.587 43.8101 26.6267 43.87 26.6769 43.9206C26.7271 43.9711 26.7868 44.0112 26.8525 44.0386C26.9183 44.0659 26.9888 44.08 27.06 44.08H33.9C34.0432 44.08 34.1806 44.0231 34.2818 43.9218C34.3831 43.8206 34.44 43.6832 34.44 43.54V40.0552L36.8916 34.6012C36.9198 34.5346 36.9344 34.463 36.9344 34.3906C36.9344 34.3182 36.9198 34.2466 36.8916 34.18L31.1712 19.96H32.1C32.2432 19.96 32.3806 19.9031 32.4818 19.8018C32.5831 19.7006 32.64 19.5632 32.64 19.42V18.5704C38.76 19.4092 43.2204 24.4384 43.44 30.76H42.54C42.3968 30.76 42.2594 30.8169 42.1582 30.9182C42.0569 31.0194 42 31.1568 42 31.3V34.18C42 34.3232 42.0569 34.4606 42.1582 34.5618C42.2594 34.6631 42.3968 34.72 42.54 34.72H45.42C45.5632 34.72 45.7006 34.6631 45.8018 34.5618C45.9031 34.4606 45.96 34.3232 45.96 34.18V31.3C45.96 31.1568 45.9031 31.0194 45.8018 30.9182C45.7006 30.8169 45.5632 30.76 45.42 30.76ZM17.88 34H16.08V32.2H17.88V34ZM27.6 43L27.6216 40.48H33.36V43H27.6ZM33.5508 39.4H27.4668L25.6236 34.3888L30.12 22.9804V32.74C30.12 32.8832 30.1769 33.0206 30.2782 33.1218C30.3794 33.2231 30.5168 33.28 30.66 33.28C30.8032 33.28 30.9406 33.2231 31.0418 33.1218C31.1431 33.0206 31.2 32.8832 31.2 32.74V22.9264L35.8116 34.36L33.5508 39.4ZM31.56 18.88H29.76V17.08H31.56V18.88ZM44.88 33.64H43.08V31.84H44.88V33.64Z" fill="#2FB0CD"/>
</svg>
