<svg width="60" height="60" viewBox="0 0 60 60" fill="none" xmlns="http://www.w3.org/2000/svg">
<circle cx="30" cy="30" r="30" fill="white"/>
<path d="M30 13.5C26.7366 13.5 23.5465 14.4677 20.8331 16.2808C18.1197 18.0938 16.0048 20.6708 14.756 23.6858C13.5072 26.7007 13.1804 30.0183 13.8171 33.219C14.4537 36.4197 16.0252 39.3597 18.3327 41.6673C20.6403 43.9748 23.5803 45.5463 26.781 46.183C29.9817 46.8196 33.2993 46.4929 36.3143 45.244C39.3293 43.9951 41.9062 41.8803 43.7192 39.1669C45.5323 36.4535 46.5 33.2634 46.5 30C46.4951 25.6255 44.7551 21.4315 41.6618 18.3382C38.5685 15.2449 34.3745 13.505 30 13.5ZM43.7385 36H39.0975C39.4779 34.2746 39.6892 32.5163 39.7283 30.75H44.9618C44.8771 32.5599 44.4626 34.3391 43.7385 36ZM15.0383 30.75H20.2718C20.3108 32.5163 20.5221 34.2746 20.9025 36H16.2615C15.5375 34.3391 15.1229 32.5599 15.0383 30.75ZM16.2615 24H20.9025C20.5221 25.7254 20.3108 27.4837 20.2718 29.25H15.0383C15.1229 27.4401 15.5375 25.6609 16.2615 24ZM30.75 22.5V15.069C33.4793 15.519 35.823 18.396 37.134 22.5H30.75ZM37.5563 24C37.9628 25.7219 38.1891 27.4813 38.2313 29.25H30.75V24H37.5563ZM29.25 15.069V22.5H22.866C24.177 18.396 26.5208 15.519 29.25 15.069ZM29.25 24V29.25H21.771C21.8132 27.4813 22.0394 25.7219 22.446 24H29.25ZM21.771 30.75H29.25V36H22.4438C22.0379 34.2781 21.8124 32.5186 21.771 30.75ZM29.25 37.5V44.931C26.5208 44.481 24.177 41.604 22.866 37.5H29.25ZM30.75 44.931V37.5H37.134C35.823 41.604 33.4793 44.481 30.75 44.931ZM30.75 36V30.75H38.229C38.1869 32.5187 37.9606 34.2782 37.554 36H30.75ZM39.7283 29.25C39.6892 27.4837 39.4779 25.7254 39.0975 24H43.7385C44.4626 25.6609 44.8771 27.4401 44.9618 29.25H39.7283ZM42.9705 22.5H38.7098C38.0588 20.0561 36.8348 17.8026 35.139 15.9262C38.4362 17.1372 41.2064 19.4625 42.9705 22.5ZM24.861 15.9262C23.1653 17.8026 21.9412 20.0561 21.2903 22.5H17.0295C18.7935 19.4625 21.5638 17.1372 24.861 15.9262ZM17.0295 37.5H21.2903C21.9412 39.9439 23.1653 42.1974 24.861 44.0737C21.5638 42.8628 18.7935 40.5374 17.0295 37.5ZM35.139 44.0737C36.8348 42.1974 38.0588 39.9439 38.7098 37.5H42.9705C41.2064 40.5374 38.4362 42.8628 35.139 44.0737Z" fill="#2FB0CD"/>
</svg>
