<svg width="61" height="62" viewBox="0 0 61 62" fill="none" xmlns="http://www.w3.org/2000/svg">
<g filter="url(#filter0_b_0_1005)">
<rect x="0.501953" y="1" width="60" height="60" rx="30" fill="white" fill-opacity="0.4"/>
<rect x="0.501953" y="1" width="60" height="60" rx="30" stroke="url(#paint0_linear_0_1005)"/>
<path d="M45.94 33.1599H45.04C44.8708 27.6195 41.7028 22.9863 36.9796 20.9199H42.88V21.8199C42.88 21.9631 42.9369 22.1005 43.0382 22.2017C43.1394 22.303 43.2768 22.3599 43.42 22.3599C43.5632 22.3599 43.7006 22.303 43.8018 22.2017C43.9031 22.1005 43.96 21.9631 43.96 21.8199V18.9399C43.96 18.7967 43.9031 18.6593 43.8018 18.5581C43.7006 18.4568 43.5632 18.3999 43.42 18.3999C43.2768 18.3999 43.1394 18.4568 43.0382 18.5581C42.9369 18.6593 42.88 18.7967 42.88 18.9399V19.8399H33.16V18.9399C33.16 18.7967 33.1031 18.6593 33.0018 18.5581C32.9006 18.4568 32.7632 18.3999 32.62 18.3999H29.74C29.5968 18.3999 29.4594 18.4568 29.3582 18.5581C29.2569 18.6593 29.2 18.7967 29.2 18.9399V19.8399H19.48V18.9399C19.48 18.7967 19.4231 18.6593 19.3218 18.5581C19.2206 18.4568 19.0832 18.3999 18.94 18.3999C18.7968 18.3999 18.6594 18.4568 18.5582 18.5581C18.4569 18.6593 18.4 18.7967 18.4 18.9399V21.8199C18.4 21.9631 18.4569 22.1005 18.5582 22.2017C18.6594 22.303 18.7968 22.3599 18.94 22.3599C19.0832 22.3599 19.2206 22.303 19.3218 22.2017C19.4231 22.1005 19.48 21.9631 19.48 21.8199V20.9199H25.3624C22.8878 21.9748 20.7747 23.7288 19.2822 25.9669C17.7898 28.205 16.9827 30.8299 16.96 33.5199H16.06C15.9168 33.5199 15.7794 33.5768 15.6782 33.6781C15.5769 33.7793 15.52 33.9167 15.52 34.0599V36.9399C15.52 37.0831 15.5769 37.2205 15.6782 37.3217C15.7794 37.423 15.9168 37.4799 16.06 37.4799H18.94C19.0832 37.4799 19.2206 37.423 19.3218 37.3217C19.4231 37.2205 19.48 37.0831 19.48 36.9399V34.0599C19.48 33.9167 19.4231 33.7793 19.3218 33.6781C19.2206 33.5768 19.0832 33.5199 18.94 33.5199H18.04C18.076 30.4345 19.225 27.4659 21.2754 25.1601C23.3259 22.8544 26.1399 21.3665 29.2 20.9703V21.8199C29.2 21.9631 29.2569 22.1005 29.3582 22.2017C29.4594 22.303 29.5968 22.3599 29.74 22.3599H30.6688L25.0636 36.5835C25.0162 36.7075 25.0162 36.8447 25.0636 36.9687L27.0724 42.4371L27.04 45.9363C27.0395 46.0075 27.0531 46.0781 27.0801 46.1441C27.107 46.21 27.1467 46.2699 27.1969 46.3205C27.2471 46.371 27.3068 46.4111 27.3725 46.4385C27.4383 46.4658 27.5088 46.4799 27.58 46.4799H34.42C34.5632 46.4799 34.7006 46.423 34.8018 46.3217C34.9031 46.2205 34.96 46.0831 34.96 45.9399V42.4551L37.4116 37.0011C37.4398 36.9345 37.4544 36.8629 37.4544 36.7905C37.4544 36.7181 37.4398 36.6465 37.4116 36.5799L31.6912 22.3599H32.62C32.7632 22.3599 32.9006 22.303 33.0018 22.2017C33.1031 22.1005 33.16 21.9631 33.16 21.8199V20.9703C39.28 21.8091 43.7404 26.8383 43.96 33.1599H43.06C42.9168 33.1599 42.7794 33.2168 42.6782 33.3181C42.5769 33.4193 42.52 33.5567 42.52 33.6999V36.5799C42.52 36.7231 42.5769 36.8605 42.6782 36.9617C42.7794 37.063 42.9168 37.1199 43.06 37.1199H45.94C46.0832 37.1199 46.2206 37.063 46.3218 36.9617C46.4231 36.8605 46.48 36.7231 46.48 36.5799V33.6999C46.48 33.5567 46.4231 33.4193 46.3218 33.3181C46.2206 33.2168 46.0832 33.1599 45.94 33.1599ZM18.4 36.3999H16.6V34.5999H18.4V36.3999ZM28.12 45.3999L28.1416 42.8799H33.88V45.3999H28.12ZM34.0708 41.7999H27.9868L26.1436 36.7887L30.64 25.3803V35.1399C30.64 35.2831 30.6969 35.4205 30.7982 35.5217C30.8994 35.623 31.0368 35.6799 31.18 35.6799C31.3232 35.6799 31.4606 35.623 31.5618 35.5217C31.6631 35.4205 31.72 35.2831 31.72 35.1399V25.3263L36.3316 36.7599L34.0708 41.7999ZM32.08 21.2799H30.28V19.4799H32.08V21.2799ZM45.4 36.0399H43.6V34.2399H45.4V36.0399Z" fill="white"/>
</g>
<defs>
<filter id="filter0_b_0_1005" x="-19.998" y="-19.5" width="101" height="101" filterUnits="userSpaceOnUse" color-interpolation-filters="sRGB">
<feFlood flood-opacity="0" result="BackgroundImageFix"/>
<feGaussianBlur in="BackgroundImageFix" stdDeviation="10"/>
<feComposite in2="SourceAlpha" operator="in" result="effect1_backgroundBlur_0_1005"/>
<feBlend mode="normal" in="SourceGraphic" in2="effect1_backgroundBlur_0_1005" result="shape"/>
</filter>
<linearGradient id="paint0_linear_0_1005" x1="1" y1="1" x2="61" y2="61" gradientUnits="userSpaceOnUse">
<stop offset="0.138693" stop-color="white"/>
<stop offset="0.414413" stop-color="white" stop-opacity="0"/>
</linearGradient>
</defs>
</svg>
