<svg width="60" height="60" viewBox="0 0 60 60" fill="none" xmlns="http://www.w3.org/2000/svg">
<circle cx="30" cy="30" r="30" fill="white"/>
<path fill-rule="evenodd" clip-rule="evenodd" d="M36.263 44H24.7243C20.4858 44 17.2342 42.4443 18.1578 36.1828L19.2333 27.6971C19.8026 24.5728 21.7637 23.3771 23.4844 23.3771H37.5536C39.2996 23.3771 41.1468 24.6628 41.8047 27.6971L42.8801 36.1828C43.6645 41.7371 40.5015 44 36.263 44Z" stroke="#2FB0CD" stroke-width="1.5" stroke-linecap="round" stroke-linejoin="round"/>
<path d="M36.4537 23.0686C36.4537 19.7171 33.78 17.0001 30.4819 17.0001V17.0001C28.8936 16.9932 27.3682 17.6296 26.2428 18.7684C25.1174 19.9072 24.4847 21.4547 24.4847 23.0686V23.0686" stroke="#2FB0CD" stroke-width="1.5" stroke-linecap="round" stroke-linejoin="round"/>
<path d="M34.5807 29.3941H34.5175" stroke="#2FB0CD" stroke-width="2.14913" stroke-linecap="round" stroke-linejoin="round"/>
</svg>
