<svg width="21" height="20" viewBox="0 0 21 20" fill="none" xmlns="http://www.w3.org/2000/svg">
<path d="M15.2884 13.0168L15.2884 7.12426C15.286 7.01458 15.2619 6.90644 15.2177 6.80606C15.1331 6.60367 14.9722 6.44275 14.7698 6.35823C14.6694 6.31394 14.5613 6.28991 14.4516 6.28752L8.55907 6.28752C8.44919 6.28752 8.34038 6.30916 8.23886 6.35121C8.13735 6.39326 8.0451 6.4549 7.9674 6.5326C7.81048 6.68952 7.72233 6.90234 7.72233 7.12426C7.72233 7.34618 7.81048 7.55901 7.9674 7.71593C8.12432 7.87285 8.33715 7.96101 8.55907 7.96101L12.4423 7.95511L7.38056 13.0168C7.22428 13.1731 7.13648 13.3851 7.13648 13.6061C7.13648 13.8271 7.22428 14.039 7.38056 14.1953C7.53684 14.3516 7.7488 14.4394 7.96982 14.4394C8.19083 14.4394 8.40279 14.3516 8.55907 14.1953L13.6208 9.13362L13.6149 13.0168C13.6144 13.1268 13.6358 13.2358 13.6777 13.3376C13.7195 13.4393 13.7812 13.5317 13.859 13.6095C13.9367 13.6873 14.0292 13.7489 14.1309 13.7908C14.2326 13.8327 14.3416 13.854 14.4516 13.8536C14.5616 13.854 14.6706 13.8327 14.7724 13.7908C14.8741 13.7489 14.9665 13.6873 15.0443 13.6095C15.1221 13.5317 15.1837 13.4393 15.2256 13.3376C15.2675 13.2358 15.2888 13.1268 15.2884 13.0168Z" fill="#16121E"/>
</svg>
