<svg width="21" height="20" viewBox="0 0 21 20" fill="none" xmlns="http://www.w3.org/2000/svg">
<path d="M15.2903 13.0168L15.2903 7.12426C15.2879 7.01458 15.2639 6.90644 15.2196 6.80606C15.1351 6.60367 14.9742 6.44275 14.7718 6.35823C14.6714 6.31394 14.5633 6.28991 14.4536 6.28752L8.56102 6.28752C8.45114 6.28752 8.34234 6.30916 8.24082 6.35121C8.1393 6.39326 8.04706 6.4549 7.96936 6.5326C7.81244 6.68952 7.72428 6.90234 7.72428 7.12426C7.72428 7.34618 7.81244 7.55901 7.96936 7.71593C8.12628 7.87285 8.33911 7.96101 8.56102 7.96101L12.4442 7.95511L7.38251 13.0168C7.22623 13.1731 7.13844 13.3851 7.13844 13.6061C7.13844 13.8271 7.22623 14.039 7.38251 14.1953C7.53879 14.3516 7.75075 14.4394 7.97177 14.4394C8.19278 14.4394 8.40474 14.3516 8.56102 14.1953L13.6227 9.13362L13.6168 13.0168C13.6164 13.1268 13.6377 13.2358 13.6796 13.3376C13.7215 13.4393 13.7831 13.5317 13.8609 13.6095C13.9387 13.6873 14.0311 13.7489 14.1328 13.7908C14.2346 13.8327 14.3436 13.854 14.4536 13.8536C14.5636 13.854 14.6726 13.8327 14.7743 13.7908C14.876 13.7489 14.9685 13.6873 15.0463 13.6095C15.124 13.5317 15.1857 13.4393 15.2275 13.3376C15.2694 13.2358 15.2908 13.1268 15.2903 13.0168Z" fill="white"/>
</svg>
