<svg width="21" height="20" viewBox="0 0 21 20" fill="none" xmlns="http://www.w3.org/2000/svg">
<rect x="1.00195" y="0.5" width="19" height="19" rx="9.5" stroke="black"/>
<path d="M14.5231 12.7727L14.2999 7.10815C14.2935 7.00261 14.2663 6.89775 14.2199 6.79958C14.131 6.60182 13.9702 6.44104 13.7724 6.35212C13.6743 6.30574 13.5694 6.27855 13.4639 6.27209L7.79933 6.04892C7.6937 6.04476 7.58993 6.06145 7.49393 6.09803C7.39793 6.1346 7.31159 6.19036 7.23984 6.26211C7.09494 6.40701 7.01825 6.60827 7.02666 6.8216C7.03506 7.03493 7.12787 7.24286 7.28466 7.39965C7.44145 7.55644 7.64938 7.64925 7.86271 7.65765L11.5954 7.79906L6.92128 12.4732C6.77697 12.6175 6.7006 12.8179 6.70897 13.0304C6.71734 13.2429 6.80977 13.4499 6.96592 13.6061C7.12207 13.7623 7.32915 13.8547 7.54161 13.863C7.75408 13.8714 7.95451 13.795 8.09882 13.6507L12.773 8.9766L12.9144 12.7093C12.9181 12.815 12.9427 12.9206 12.9869 13.02C13.031 13.1194 13.0937 13.2106 13.1714 13.2883C13.2492 13.366 13.3403 13.4287 13.4397 13.4729C13.5391 13.517 13.6447 13.5416 13.7504 13.5454C13.8562 13.55 13.9602 13.5336 14.0564 13.4972C14.1526 13.4607 14.2391 13.405 14.3109 13.3332C14.3827 13.2613 14.4385 13.1748 14.4749 13.0786C14.5113 12.9824 14.5277 12.8785 14.5231 12.7727Z" fill="#16121E"/>
</svg>
