<svg width="280" height="280" viewBox="0 0 280 280" fill="none" xmlns="http://www.w3.org/2000/svg">
<g clip-path="url(#clip0_309_194)">
<path d="M270.145 139.995C274.469 134.959 277.499 128.945 278.973 122.473C280.446 116.001 280.319 109.267 278.6 102.856C276.882 96.4448 273.626 90.5495 269.114 85.6816C264.602 80.8138 258.97 77.1204 252.707 74.9218C253.934 68.3984 253.551 61.6742 251.591 55.3324C249.631 48.9907 246.153 43.2229 241.459 38.5296C236.765 33.8363 230.997 30.3592 224.655 28.3999C218.313 26.4406 211.589 26.0584 205.066 27.2863C202.869 21.0221 199.176 15.3888 194.308 10.8755C189.44 6.36215 183.544 3.10526 177.132 1.38757C170.72 -0.330126 163.985 -0.456704 157.513 1.01882C151.041 2.49435 145.026 5.52739 139.992 9.85459C134.957 5.53036 128.942 2.50006 122.47 1.02657C115.998 -0.446916 109.265 -0.319091 102.853 1.39896C96.442 3.117 90.5468 6.37338 85.6789 10.8856C80.811 15.3978 77.1176 21.0296 74.9191 27.2924C68.3961 26.0664 61.6726 26.4504 55.3316 28.411C48.9907 30.3716 43.2239 33.8496 38.5313 38.5433C33.8388 43.2371 30.3622 49.0048 28.4033 55.3462C26.4443 61.6877 26.062 68.4113 27.2897 74.9339C21.0269 77.1325 15.3951 80.8259 10.8829 85.6938C6.37064 90.5616 3.11425 96.4569 1.3962 102.868C-0.321843 109.28 -0.449687 116.013 1.0238 122.485C2.49729 128.957 5.52765 134.972 9.85188 140.007C5.52633 145.043 2.49504 151.058 1.02114 157.53C-0.452772 164.003 -0.324817 170.737 1.39398 177.149C3.11278 183.561 6.37043 189.456 10.8842 194.324C15.398 199.191 21.0315 202.884 27.2958 205.08C26.0671 211.603 26.4489 218.327 28.4081 224.669C30.3673 231.011 33.8447 236.779 38.5384 241.472C43.2322 246.165 49.0004 249.641 55.3424 251.6C61.6844 253.558 68.4086 253.939 74.9312 252.71C77.1298 258.973 80.8232 264.604 85.6911 269.117C90.5589 273.629 96.4542 276.885 102.865 278.603C109.277 280.321 116.01 280.449 122.482 278.976C128.954 277.502 134.969 274.472 140.004 270.148C145.04 274.473 151.055 277.504 157.528 278.978C164 280.452 170.734 280.324 177.146 278.605C183.558 276.887 189.454 273.629 194.321 269.115C199.189 264.601 202.881 258.968 205.078 252.704C211.601 253.932 218.325 253.55 224.667 251.591C231.009 249.632 236.777 246.154 241.47 241.461C246.164 236.767 249.641 230.999 251.6 224.657C253.559 218.315 253.941 211.591 252.713 205.068C258.976 202.87 264.609 199.177 269.121 194.309C273.634 189.441 276.89 183.545 278.607 177.133C280.325 170.722 280.452 163.988 278.977 157.516C277.502 151.044 274.471 145.03 270.145 139.995Z" fill="#2FB0CD"/>
<path d="M114.869 193.436L75.965 154.556C74.4885 153.077 73.6592 151.072 73.6592 148.983C73.6592 146.893 74.4885 144.889 75.965 143.41L80.6915 138.677C82.1704 137.201 84.1747 136.371 86.2644 136.371C88.3542 136.371 90.3586 137.201 91.8374 138.677L120.118 166.939L186.72 96.1626C188.153 94.642 190.131 93.7522 192.22 93.6885C194.308 93.6248 196.337 94.3924 197.86 95.8228L202.714 100.404C204.236 101.837 205.127 103.816 205.191 105.906C205.255 107.996 204.486 110.026 203.054 111.55L126.203 193.26C125.48 194.031 124.609 194.649 123.641 195.076C122.674 195.504 121.631 195.733 120.574 195.749C119.516 195.766 118.466 195.57 117.486 195.172C116.507 194.775 115.617 194.184 114.869 193.436Z" fill="white"/>
</g>
<defs>
<clipPath id="clip0_309_194">
<rect width="280" height="280" fill="white"/>
</clipPath>
</defs>
</svg>
