<svg width="721" height="701" viewBox="0 0 721 701" fill="none" xmlns="http://www.w3.org/2000/svg">
<path fill-rule="evenodd" clip-rule="evenodd" d="M0.00316506 1.37993C0.000900917 1.37631 -0.000276374 1.37359 0.775329 0.906258C1.55103 0.438924 1.55183 0.439828 1.55374 0.443451L1.56252 0.457948L1.59838 0.516819C1.63053 0.570255 1.67881 0.649942 1.74338 0.755001C1.87253 0.966936 2.06643 1.28212 2.32499 1.69964C2.84194 2.53469 3.6171 3.77456 4.64801 5.39392C6.70974 8.63084 9.7941 13.3811 13.8816 19.4293C22.0567 31.5247 34.2434 48.8088 50.2837 69.5526C82.3651 111.04 129.856 166.357 191.491 221.672C314.771 332.311 494.564 442.88 720.773 442.88V444.692C493.949 444.692 313.743 333.822 190.282 223.02C128.547 167.616 80.9825 112.213 48.8508 70.6603C32.7845 49.8839 20.5751 32.5681 12.3809 20.4437C8.28386 14.381 5.19032 9.61711 3.12017 6.36664C2.08509 4.74184 1.30595 3.4947 0.785016 2.65332C0.524639 2.23308 0.328747 1.91429 0.197698 1.69964C0.132219 1.59187 0.0829505 1.51125 0.0499846 1.45691L0.0126727 1.39532L0.00316506 1.37993ZM0.0893832 134.633C0.0871191 134.631 0.0858516 134.63 0.775329 134.042C1.46472 133.455 1.46544 133.456 1.46725 133.458L1.47594 133.468L1.51153 133.509L1.57447 133.583L1.65598 133.677C1.71105 133.741 1.77789 133.818 1.85659 133.909L1.98238 134.054C2.05873 134.142 2.14341 134.239 2.23642 134.344C2.75264 134.934 3.52707 135.811 4.55717 136.956C6.61736 139.244 9.70019 142.604 13.7861 146.882C21.958 155.437 34.1415 167.664 50.1785 182.338C82.2532 211.686 129.739 250.824 191.372 289.961C314.639 368.237 494.472 446.503 720.773 446.503V448.315C494.041 448.315 313.875 369.898 190.401 291.49C128.664 252.286 81.0943 213.081 48.9558 183.674C32.8863 168.97 20.6738 156.715 12.4763 148.133C8.3776 143.841 5.2826 140.469 3.21091 138.167C2.17511 137.016 1.39506 136.133 0.8735 135.537C0.61258 135.239 0.416416 135.013 0.285005 134.861C0.219345 134.785 0.169896 134.728 0.136659 134.689L0.0990738 134.645L0.0893832 134.633ZM0.775329 226.422C0.192267 227.115 0.193534 227.116 0.195889 227.118L0.205579 227.126L0.243343 227.158L0.341246 227.24L0.392052 227.281C0.523644 227.391 0.720082 227.553 0.981188 227.767C1.50321 228.194 2.28361 228.827 3.31996 229.653C5.39237 231.303 8.48826 233.722 12.5877 236.797C20.7866 242.95 33.0002 251.735 49.0705 262.274C81.2108 283.354 128.779 311.454 190.512 339.551C313.977 395.747 494.104 451.937 720.773 451.937V450.126C494.408 450.126 314.537 394.012 191.262 337.903C129.624 309.848 82.1367 281.794 50.0638 260.76C34.0275 250.242 21.8451 241.48 13.6748 235.349C9.5896 232.283 6.5075 229.876 4.44812 228.236C3.41848 227.416 2.64452 226.788 2.12875 226.366C2.01807 226.275 1.91926 226.194 1.83241 226.122C1.71684 226.027 1.62238 225.949 1.54903 225.887C1.48472 225.835 1.43663 225.794 1.40494 225.768L1.36943 225.738L1.36084 225.731C1.36084 225.731 1.35984 225.73 1.34191 225.751C1.3334 225.761 1.3209 225.775 1.30251 225.797C1.26855 225.837 1.21467 225.9 1.12863 226.003L0.775329 226.422ZM0.388069 327.772C0.388069 327.772 0.387526 327.772 0.388069 327.77C0.388612 327.768 0.390059 327.764 0.39341 327.756C0.400111 327.741 0.414515 327.71 0.444583 327.647C0.495843 327.538 0.592839 327.334 0.775329 326.953C0.951935 326.583 1.04884 326.381 1.10227 326.271C1.12718 326.219 1.14258 326.188 1.15227 326.168C1.16159 326.149 1.16539 326.141 1.16711 326.139C1.1682 326.137 1.16866 326.137 1.16866 326.137L1.17725 326.141L1.21285 326.159L1.35713 326.226C1.48573 326.287 1.67917 326.378 1.93719 326.498C2.45323 326.738 3.22757 327.096 4.25757 327.562C6.31758 328.494 9.4005 329.864 13.4866 331.607C21.6588 335.094 33.8439 340.077 49.8836 346.057C81.9629 358.02 129.461 373.972 191.114 389.927C314.419 421.835 494.341 453.749 720.773 453.749V455.56C494.171 455.56 314.095 423.623 190.66 391.68C128.942 375.709 81.3845 359.737 49.2508 347.755C33.1839 341.763 20.9729 336.77 12.7758 333.274C8.67737 331.525 5.58238 330.15 3.51051 329.213C2.47462 328.743 1.69447 328.383 1.17263 328.14C0.911805 328.019 0.715465 327.926 0.583964 327.865L0.435434 327.794L0.397759 327.776L0.388069 327.772ZM0.775329 407.559C0.652341 408.206 0.619374 408.383 0.611495 408.431C0.608506 408.449 0.609591 408.449 0.609591 408.449L0.619009 408.451L0.656141 408.458L0.803675 408.486C0.934456 408.511 1.13007 408.547 1.39026 408.595L1.63407 408.64L1.9342 408.695C2.09985 408.725 2.28108 408.759 2.4777 408.794C2.84068 408.86 3.25611 408.935 3.72379 409.02C5.79258 409.392 8.88467 409.937 12.9799 410.631C21.1706 412.019 33.3749 414.001 49.4344 416.379C81.5538 421.136 129.095 427.478 190.794 433.819C314.193 446.501 494.223 459.183 720.773 459.183V457.371C494.29 457.371 314.322 444.694 190.98 432.017C129.308 425.679 81.7938 419.341 49.6998 414.588C33.6529 412.211 21.4611 410.231 13.2825 408.845C9.1932 408.152 6.1072 407.608 4.04429 407.237C3.01284 407.052 2.23705 406.909 1.71965 406.813C1.46091 406.766 1.26674 406.73 1.13732 406.706L0.992055 406.678L0.956001 406.671L0.947126 406.669C0.947126 406.669 0.94613 406.669 0.942416 406.687C0.938884 406.704 0.932373 406.736 0.919965 406.801L0.892429 406.944C0.867252 407.075 0.830031 407.271 0.775329 407.559ZM0.785199 456.466C0.783116 456.466 0.782121 456.466 0.775329 457.371C0.768446 458.277 0.769533 458.277 0.771525 458.277H0.78067H0.795885L0.81726 458.278H0.844791H0.878299H0.917964L0.963699 458.279H1.0155L1.07337 458.28H1.13732L1.20732 458.281H1.2835L1.36563 458.282L1.45385 458.283L1.54812 458.283H1.64848L1.75479 458.284L1.86718 458.285L1.98565 458.286L2.11027 458.287L2.24078 458.288L2.37734 458.29L2.5199 458.291L2.66851 458.292L2.8231 458.293L2.98387 458.294L3.1505 458.295L3.32321 458.296L3.5018 458.298L3.68647 458.299L3.87721 458.301L4.07391 458.303L4.2765 458.303L4.48517 458.305L4.69981 458.307L4.92042 458.309L5.14703 458.311L5.37959 458.312L5.61814 458.314L5.86267 458.316L6.11309 458.318L6.36957 458.32L6.63194 458.322L6.90029 458.323L7.17452 458.325L7.45473 458.328L7.74092 458.33L8.033 458.332L8.33105 458.334L8.63499 458.337L8.94489 458.339L9.26067 458.341L9.58236 458.344L9.91003 458.346L10.2436 458.349L10.583 458.351L10.9284 458.354L11.2797 458.357L11.6368 458.36L11.9999 458.362L12.3689 458.365L12.7437 458.368L13.1244 458.37L13.511 458.373L13.9034 458.377L14.3018 458.379L14.706 458.382L15.1161 458.386L15.5321 458.389L15.9538 458.392L16.3815 458.395L16.8149 458.398L17.2543 458.402L17.6995 458.405L18.1505 458.408L18.6074 458.412L19.07 458.416L19.5386 458.419L20.0129 458.422L20.4931 458.426L20.9791 458.43L21.4708 458.434L21.9685 458.437L22.4719 458.441L22.9811 458.445L23.4962 458.449L24.0169 458.453L24.5435 458.456L25.076 458.461L25.6141 458.465L26.1581 458.469L26.7078 458.473L27.2633 458.477L27.8246 458.482L28.3917 458.485L28.9645 458.49L29.543 458.494L30.1274 458.499L30.7174 458.504L31.3132 458.508L31.9149 458.513L32.5221 458.517L33.1352 458.522L33.754 458.526L34.3784 458.531L35.0088 458.535L35.6447 458.541L36.2864 458.545L36.9338 458.551L37.5869 458.555L38.2457 458.56L38.9103 458.565L39.5804 458.571L40.2564 458.575L40.938 458.581L41.6253 458.586L42.3183 458.591L43.0171 458.596L43.7214 458.601L44.4314 458.607L45.1471 458.612L45.8684 458.618L46.5955 458.623L47.3283 458.629L48.0666 458.634L48.8106 458.639L49.5603 458.646L50.3157 458.651L51.0766 458.657L51.8432 458.663L52.6155 458.668L53.3933 458.675L54.1768 458.68L54.9659 458.686L55.7607 458.692L56.5611 458.698L57.3671 458.705L58.1787 458.711L58.9958 458.716L59.8186 458.723L60.6471 458.729L61.4811 458.735L62.3207 458.742L63.1659 458.748L64.0166 458.754L64.873 458.761L65.7349 458.768L66.6024 458.774L67.4756 458.781L68.3542 458.787L69.2384 458.794L70.1282 458.801L71.0235 458.808L71.9244 458.814L72.8308 458.821L73.7428 458.828L74.6604 458.835L75.5834 458.842L76.512 458.849L77.4462 458.856L78.3858 458.863L79.331 458.87L80.2817 458.878L81.2379 458.885L82.1996 458.892L83.1668 458.899L84.1396 458.907L85.1179 458.914L86.1016 458.921L87.0909 458.928L88.0856 458.936L89.0858 458.944L90.0916 458.951L91.103 458.959L92.1192 458.966L93.1416 458.975L94.1696 458.982L95.202 458.99L96.2408 458.998L97.285 459.005L98.3347 459.013L99.3889 459.022L100.449 459.03L101.515 459.038L102.587 459.046L103.664 459.054L104.746 459.062L105.833 459.071L106.926 459.079L108.024 459.087L109.128 459.095L110.238 459.103L111.352 459.112L112.472 459.12L113.598 459.128L114.729 459.138L115.865 459.146L117.007 459.155L118.153 459.163L119.306 459.172L120.464 459.181L121.627 459.189L122.796 459.198L123.969 459.207L125.148 459.216L126.333 459.225L127.523 459.234L128.719 459.243L129.919 459.252L131.126 459.261L132.337 459.271L133.554 459.28L134.776 459.289L136.004 459.298L137.236 459.307L138.474 459.317L139.718 459.326L140.967 459.335L142.221 459.345L143.48 459.354L144.745 459.364L146.015 459.374L147.29 459.383L148.571 459.393L149.857 459.403L151.148 459.412L152.445 459.422L153.746 459.432L155.053 459.442L156.366 459.452L157.683 459.462L159.006 459.472L160.334 459.482L161.668 459.492L163.007 459.502L164.351 459.512L165.7 459.522L167.054 459.532L168.414 459.542L169.779 459.553L171.15 459.563L172.524 459.573L173.905 459.584L175.291 459.594L176.682 459.605L178.079 459.616L179.48 459.626L180.887 459.637L182.299 459.647L183.716 459.658L185.138 459.669L186.566 459.679L187.998 459.69L189.437 459.701L190.88 459.712L192.328 459.723L193.782 459.734L195.241 459.745L196.704 459.756L198.173 459.767L199.648 459.778L201.127 459.79L202.611 459.801L204.101 459.812L205.596 459.823L207.096 459.835L208.601 459.846L210.112 459.858L211.627 459.868L213.148 459.88L214.673 459.892L216.204 459.903L217.739 459.915L219.281 459.926L220.827 459.938L222.378 459.95L223.935 459.962L225.496 459.973L227.063 459.985L228.634 459.997L230.211 460.009L231.793 460.021L233.38 460.033L234.972 460.045L236.569 460.057L238.171 460.069L239.778 460.081L241.39 460.093L243.008 460.106L244.631 460.117L246.258 460.13L247.89 460.142L249.529 460.155L251.171 460.167L252.819 460.18L254.472 460.192L256.129 460.204L257.792 460.217L259.46 460.23L261.133 460.242L262.811 460.255L264.494 460.268L266.182 460.281L267.875 460.293L269.573 460.306L271.275 460.319L272.983 460.332L274.696 460.345L276.414 460.357L278.138 460.371L279.866 460.384L281.598 460.396L283.336 460.41L285.078 460.423L286.826 460.436L288.58 460.45L290.337 460.463L292.1 460.476L293.868 460.49L295.64 460.502L297.418 460.516L299.2 460.53L300.988 460.543L302.78 460.557L304.577 460.57L306.38 460.584L308.187 460.598L309.999 460.611L311.816 460.625L313.638 460.638L315.465 460.653L317.296 460.666L319.133 460.68L320.975 460.694L322.822 460.708L324.673 460.722L326.53 460.736L328.391 460.75L330.256 460.764L332.127 460.778L334.003 460.792L335.884 460.807L337.77 460.82L339.66 460.835L341.555 460.849L343.455 460.864L345.36 460.878L347.27 460.893L349.185 460.907L351.105 460.922L353.029 460.936L354.958 460.951L356.892 460.965L358.831 460.98L360.774 460.994L362.723 461.009L364.677 461.024L366.635 461.039L368.597 461.053L370.565 461.068L372.538 461.083L374.515 461.098L376.497 461.113L378.484 461.128L380.476 461.143L382.473 461.158L384.474 461.174L386.48 461.188L388.491 461.203L390.507 461.219L392.527 461.234L394.553 461.25L396.582 461.265L398.617 461.28L400.657 461.296L402.701 461.311L404.75 461.327L406.803 461.342L408.862 461.357L410.925 461.373L412.994 461.388L415.066 461.404L417.143 461.42L419.225 461.435L421.312 461.452L423.404 461.467L425.5 461.483L427.601 461.499L429.707 461.515L431.817 461.53L433.932 461.547L436.052 461.563L438.176 461.578L440.305 461.595L442.439 461.611L444.577 461.627L446.72 461.643L448.868 461.659L451.021 461.675L453.178 461.692L455.34 461.708L457.507 461.724L459.677 461.74L461.853 461.757L464.034 461.774L466.219 461.79L468.409 461.807L470.602 461.823L472.802 461.84L475.006 461.856L477.214 461.874L479.426 461.89L481.644 461.906L483.866 461.923L486.093 461.94L488.324 461.957L490.559 461.974L492.8 461.99L495.045 462.008L497.295 462.025L499.549 462.042L501.808 462.058L504.072 462.076L506.34 462.093L508.612 462.11L510.89 462.127L513.171 462.144L515.457 462.162L517.748 462.179L520.043 462.196L522.344 462.214L524.648 462.231L526.957 462.249L529.271 462.266L531.588 462.284L533.911 462.301L536.238 462.318L538.57 462.336L540.907 462.354L543.247 462.372L545.593 462.389L547.942 462.407L550.297 462.425L552.655 462.442L555.019 462.46L557.386 462.479L559.759 462.496L562.135 462.514L564.516 462.532L566.903 462.55L569.293 462.568L571.687 462.586L574.086 462.605L576.49 462.623L578.898 462.641L581.311 462.659L583.728 462.677L586.149 462.695L588.575 462.714L591.006 462.732L593.44 462.75L595.879 462.768L598.324 462.787L600.772 462.806L603.224 462.825L605.681 462.843L608.142 462.862L610.608 462.88L613.079 462.899L615.553 462.917L618.032 462.936L620.516 462.955L623.004 462.973L625.495 462.992L627.992 463.011L630.493 463.03L632.998 463.049L635.508 463.068L638.022 463.087L640.541 463.106L643.064 463.125L645.592 463.144L648.123 463.163L650.659 463.182L653.199 463.201L655.744 463.22L658.294 463.24L660.847 463.259L663.404 463.278L665.966 463.297L668.533 463.317L671.103 463.336L673.679 463.356L676.258 463.375L678.842 463.395L681.429 463.414L684.022 463.434L686.619 463.454L689.22 463.473L691.825 463.493L694.435 463.513L697.048 463.532L699.667 463.552L702.289 463.572L704.916 463.592L707.547 463.612L710.182 463.632L712.821 463.651L715.466 463.671L718.114 463.691L720.766 463.711L720.779 461.9L718.128 461.88L715.479 461.86L712.835 461.84L710.196 461.82L707.56 461.8L704.929 461.78L702.303 461.76L699.68 461.74L697.062 461.721L694.448 461.702L691.839 461.682L689.233 461.662L686.632 461.643L684.036 461.623L681.443 461.603L678.856 461.584L676.272 461.564L673.692 461.545L671.117 461.525L668.546 461.506L665.98 461.487L663.418 461.467L660.86 461.448L658.307 461.429L655.758 461.409L653.213 461.39L650.672 461.371L648.137 461.352L645.605 461.333L643.078 461.314L640.554 461.295L638.036 461.276L635.522 461.257L633.012 461.238L630.507 461.219L628.006 461.2L625.509 461.181L623.017 461.162L620.529 461.144L618.046 461.125L615.566 461.106L613.092 461.087L610.622 461.068L608.156 461.05L605.695 461.031L603.238 461.013L600.785 460.994L598.337 460.976L595.893 460.957L593.454 460.939L591.019 460.921L588.589 460.903L586.162 460.884L583.742 460.866L581.324 460.847L578.912 460.829L576.504 460.811L574.1 460.793L571.701 460.775L569.306 460.757L566.916 460.739L564.53 460.721L562.149 460.703L559.772 460.684L557.4 460.667L555.032 460.649L552.668 460.631L550.31 460.614L547.955 460.596L545.606 460.578L543.26 460.56L540.92 460.542L538.584 460.525L536.253 460.507L533.925 460.49L531.602 460.473L529.284 460.454L526.97 460.437L524.662 460.42L522.357 460.403L520.058 460.385L517.762 460.367L515.471 460.35L513.185 460.333L510.903 460.316L508.625 460.299L506.353 460.281L504.085 460.264L501.822 460.248L499.563 460.231L497.308 460.214L495.059 460.196L492.814 460.179L490.574 460.163L488.338 460.146L486.106 460.129L483.879 460.112L481.658 460.095L479.44 460.079L477.227 460.062L475.019 460.045L472.816 460.029L470.617 460.012L468.422 459.995L466.233 459.979L464.047 459.963L461.867 459.946L459.691 459.929L457.52 459.913L455.354 459.896L453.192 459.88L451.035 459.864L448.882 459.848L446.735 459.831L444.591 459.816L442.453 459.8L440.319 459.783L438.19 459.767L436.065 459.752L433.946 459.735L431.83 459.719L429.72 459.704L427.614 459.687L425.513 459.672L423.418 459.656L421.326 459.64L419.239 459.624L417.157 459.608L415.079 459.593L413.007 459.577L410.939 459.561L408.875 459.546L406.817 459.531L404.764 459.515L402.714 459.5L400.67 459.484L398.631 459.469L396.596 459.454L394.566 459.438L392.541 459.423L390.521 459.407L388.505 459.392L386.494 459.377L384.488 459.362L382.486 459.347L380.489 459.331L378.498 459.317L376.511 459.301L374.529 459.287L372.551 459.272L370.579 459.257L368.611 459.242L366.648 459.227L364.69 459.213L362.737 459.197L360.788 459.183L358.844 459.168L356.905 459.154L354.972 459.139L353.043 459.125L351.118 459.11L349.198 459.096L347.284 459.081L345.374 459.067L343.469 459.052L341.569 459.038L339.673 459.023L337.783 459.01L335.898 458.995L334.017 458.981L332.141 458.967L330.27 458.953L328.404 458.938L326.543 458.925L324.686 458.91L322.835 458.897L320.989 458.883L319.147 458.869L317.311 458.855L315.479 458.841L313.652 458.827L311.83 458.813L310.013 458.8L308.201 458.786L306.393 458.773L304.591 458.759L302.794 458.745L301.002 458.732L299.214 458.718L297.432 458.705L295.654 458.691L293.882 458.678L292.114 458.665L290.351 458.651L288.593 458.638L286.84 458.625L285.092 458.611L283.35 458.599L281.612 458.585L279.879 458.572L278.151 458.56L276.428 458.546L274.71 458.533L272.997 458.521L271.289 458.507L269.586 458.494L267.888 458.482L266.196 458.469L264.507 458.456L262.825 458.444L261.146 458.431L259.474 458.418L257.806 458.406L256.143 458.393L254.485 458.38L252.833 458.369L251.185 458.356L249.542 458.343L247.905 458.331L246.272 458.319L244.645 458.306L243.022 458.294L241.404 458.282L239.792 458.27L238.185 458.258L236.582 458.245L234.986 458.234L233.394 458.222L231.807 458.209L230.225 458.197L228.648 458.186L227.077 458.174L225.51 458.162L223.948 458.15L222.392 458.139L220.84 458.127L219.294 458.115L217.754 458.103L216.218 458.091L214.686 458.081L213.161 458.069L211.641 458.057L210.125 458.046L208.615 458.034L207.11 458.024L205.61 458.012L204.115 458.001L202.625 457.989L201.14 457.978L199.661 457.967L198.187 457.956L196.718 457.945L195.255 457.934L193.795 457.923L192.342 457.912L190.894 457.9L189.45 457.889L188.013 457.879L186.58 457.868L185.152 457.858L183.73 457.847L182.313 457.836L180.901 457.825L179.494 457.814L178.092 457.804L176.696 457.794L175.305 457.784L173.919 457.773L172.538 457.762L171.163 457.752L169.793 457.742L168.428 457.731L167.068 457.721L165.714 457.711L164.364 457.7L163.02 457.69L161.682 457.68L160.349 457.67L159.02 457.66L157.697 457.65L156.379 457.64L155.067 457.63L153.76 457.621L152.459 457.611L151.162 457.601L149.87 457.592L148.584 457.582L147.304 457.572L146.028 457.563L144.759 457.553L143.493 457.543L142.235 457.534L140.98 457.525L139.731 457.515L138.488 457.505L137.25 457.496L136.017 457.486L134.79 457.477L133.567 457.468L132.351 457.459L131.139 457.449L129.933 457.44L128.732 457.431L127.537 457.422L126.347 457.414L125.162 457.405L123.983 457.396L122.809 457.387L121.641 457.378L120.477 457.37L119.32 457.361L118.167 457.352L117.02 457.343L115.878 457.334L114.742 457.326L113.611 457.317L112.486 457.309L111.366 457.301L110.251 457.292L109.142 457.284L108.038 457.275L106.939 457.267L105.847 457.259L104.759 457.251L103.677 457.243L102.6 457.235L101.529 457.227L100.463 457.218L99.4025 457.21L98.3483 457.202L97.2986 457.194L96.2544 457.187L95.2156 457.179L94.1832 457.171L93.1552 457.163L92.1327 457.155L91.1166 457.148L90.1053 457.141L89.0995 457.132L88.0993 457.125L87.1045 457.118L86.1153 457.11L85.1316 457.102L84.1533 457.095L83.1806 457.088L82.2133 457.081L81.2515 457.073L80.2953 457.066L79.3446 457.059L78.3995 457.052L77.4598 457.044L76.5256 457.037L75.5971 457.031L74.674 457.024L73.7565 457.016L72.8445 457.01L71.938 457.003L71.0372 456.996L70.1418 456.989L69.252 456.983L68.3679 456.976L67.4892 456.969L66.6161 456.963L65.7486 456.957L64.8867 456.949L64.0303 456.943L63.1795 456.937L62.3344 456.93L61.4947 456.924L60.6607 456.918L59.8324 456.911L59.0096 456.905L58.1923 456.9L57.3807 456.893L56.5747 456.887L55.7744 456.881L54.9797 456.875L54.1905 456.869L53.4069 456.863L52.6292 456.857L51.8569 456.852L51.0903 456.845L50.3293 456.84L49.574 456.834L48.8243 456.829L48.0802 456.823L47.3419 456.817L46.6092 456.812L45.8822 456.806L45.1607 456.801L44.4451 456.795L43.7351 456.79L43.0307 456.785L42.332 456.779L41.639 456.775L40.9517 456.769L40.27 456.764L39.5941 456.759L38.9239 456.754L38.2594 456.748L37.6006 456.744L36.9474 456.739L36.3001 456.734L35.6583 456.729L35.0224 456.725L34.3922 456.719L33.7677 456.715L33.1488 456.71L32.5358 456.706L31.9285 456.701L31.3269 456.697L30.7311 456.692L30.141 456.688L29.5567 456.683L28.9781 456.679L28.4053 456.674L27.8382 456.67L27.277 456.666L26.7215 456.661L26.1717 456.658L25.6278 456.653L25.0896 456.65L24.5571 456.645L24.0306 456.641L23.5097 456.638L22.9948 456.633L22.4855 456.63L21.9822 456.626L21.4845 456.622L20.9927 456.619L20.5068 456.615L20.0266 456.612L19.5522 456.608L19.0837 456.604L18.621 456.601L18.1642 456.597L17.7132 456.593L17.2679 456.591L16.8286 456.587L16.3952 456.583L15.9674 456.581L15.5457 456.577L15.1298 456.574L14.7197 456.571L14.3154 456.568L13.9171 456.565L13.5247 456.562L13.1381 456.559L12.7573 456.556L12.3826 456.554L12.0136 456.551L11.6505 456.548L11.2933 456.545L10.9421 456.543L10.5967 456.54L10.2573 456.537L9.9237 456.535L9.59604 456.533L9.27435 456.53L8.95857 456.527L8.64866 456.526L8.34472 456.523L8.04667 456.521L7.7546 456.518L7.46841 456.516L7.18819 456.515L6.91387 456.512L6.64561 456.51L6.38315 456.508L6.12685 456.507L5.87626 456.505L5.63183 456.503L5.39328 456.501L5.1607 456.499L4.93411 456.497L4.71349 456.496L4.49884 456.494L4.29018 456.492L4.0875 456.491L3.89087 456.489L3.70024 456.488L3.51548 456.487L3.33679 456.485L3.16418 456.484L2.99744 456.483L2.83688 456.481L2.68219 456.48L2.53357 456.479L2.39102 456.478L2.25436 456.477L2.12385 456.476L1.99941 456.475L1.88087 456.474L1.76848 456.473H1.66206L1.5618 456.472L1.46752 456.471L1.37931 456.47L1.29708 456.469H1.22101L1.151 456.468H1.08706L1.02919 456.468H0.977293L0.931648 456.467H0.891977H0.858465H0.830934L0.809652 456.466H0.794347H0.785199ZM0.775329 700.095C0.192267 699.402 0.193534 699.401 0.195889 699.399L0.205579 699.391L0.243343 699.36L0.252219 699.351L0.332008 699.285L0.392052 699.235L0.503087 699.143L0.629246 699.039C0.729321 698.956 0.846693 698.861 0.981188 698.75C1.50321 698.323 2.28361 697.689 3.31996 696.864C5.39237 695.213 8.48818 692.796 12.5877 689.719C20.7866 683.567 33.0002 674.782 49.0705 664.243C81.2108 643.163 128.779 615.064 190.512 586.966C313.977 530.77 494.104 474.579 720.773 474.579V476.391C494.408 476.391 314.537 532.505 191.262 588.614C129.624 616.67 82.1367 644.722 50.0638 665.757C34.0275 676.275 21.8451 685.037 13.6748 691.169C9.5896 694.233 6.5075 696.642 4.44812 698.281C3.41848 699.101 2.64452 699.729 2.12875 700.151C1.87081 700.363 1.67745 700.522 1.54903 700.629C1.4974 700.672 1.45629 700.706 1.42568 700.732L1.40494 700.749L1.36943 700.779L1.36084 700.786C1.36084 700.786 1.35957 700.787 1.3161 700.736C1.25596 700.666 1.11369 700.497 0.775329 700.095ZM0.388069 597.84C0.385714 597.84 0.384447 597.841 0.775329 598.658C1.16612 599.475 1.16685 599.475 1.16866 599.474L1.17725 599.47L1.21285 599.453L1.35713 599.385C1.48573 599.324 1.67917 599.233 1.93719 599.113C2.14902 599.014 2.40433 598.896 2.70301 598.759C2.8855 598.675 3.08421 598.583 3.29903 598.485C3.58911 598.353 3.90862 598.207 4.25757 598.05C6.31758 597.117 9.4005 595.747 13.4866 594.004C21.6588 590.518 33.8439 585.535 49.8836 579.554C81.9629 567.591 129.461 551.639 191.114 535.684C314.419 503.776 494.341 471.862 720.773 471.862V470.051C494.171 470.051 314.095 501.988 190.66 533.931C128.942 549.902 81.3845 565.874 49.2508 577.857C33.1839 583.848 20.9729 588.841 12.7758 592.338C8.67737 594.086 5.58238 595.461 3.51051 596.399C2.47462 596.868 1.69447 597.228 1.17263 597.471C1.02583 597.54 0.899493 597.599 0.793621 597.648C0.711297 597.686 0.641473 597.72 0.583964 597.747L0.435434 597.817L0.397759 597.835L0.388069 597.84ZM0.775329 517.147C0.606243 516.257 0.607417 516.256 0.609591 516.256L0.619009 516.255L0.656141 516.247L0.803675 516.22C0.934456 516.196 1.13007 516.159 1.39026 516.111C1.91065 516.015 2.68935 515.871 3.72379 515.686C5.79258 515.314 8.88467 514.768 12.9799 514.075C21.1706 512.687 33.3749 510.704 49.4344 508.326C81.5538 503.57 129.095 497.228 190.794 490.886C314.193 478.204 494.223 465.523 720.773 465.523V467.334C494.29 467.334 314.322 480.012 190.98 492.689C129.308 499.027 81.7938 505.365 49.6998 510.118C33.6529 512.494 21.4611 514.475 13.2825 515.861C9.1932 516.553 6.1072 517.098 4.04429 517.468C3.42129 517.58 2.89158 517.676 2.45569 517.756C2.16995 517.809 1.92451 517.854 1.71965 517.892C1.46091 517.94 1.26674 517.976 1.13732 518L0.992055 518.028L0.956001 518.034L0.947126 518.036C0.945224 518.036 0.944327 518.037 0.775329 517.147Z" fill="url(#paint0_linear_0_905)"/>
<defs>
<linearGradient id="paint0_linear_0_905" x1="709.906" y1="341.43" x2="13.9803" y2="341.43" gradientUnits="userSpaceOnUse">
<stop offset="0.0182341" stop-color="#3AC9E6"/>
<stop offset="0.127609" stop-color="#3AC9E6"/>
<stop offset="0.563305" stop-color="#3AC9E6"/>
<stop offset="0.943305" stop-color="#3AC9E6"/>
</linearGradient>
</defs>
</svg>
