<svg width="22" height="24" viewBox="0 0 22 24" fill="none" xmlns="http://www.w3.org/2000/svg">
<path d="M3.751 0.61L16.875 8.156L14.062 10.969L3.751 0.61ZM1.032 0L13.079 12L1.033 24C0.42 23.729 0 23.126 0 22.425C0 22.402 0 22.379 0.001 22.357V22.36V1.641C0 1.622 0 1.599 0 1.576C0 0.875 0.42 0.272 1.022 0.005L1.033 0.001L1.032 0ZM20.954 10.594C21.368 10.901 21.633 11.389 21.633 11.938C21.633 11.96 21.633 11.981 21.632 12.003V12C21.636 12.043 21.639 12.094 21.639 12.145C21.639 12.661 21.389 13.119 21.003 13.403L20.999 13.406L18.186 14.999L15.14 12L18.187 8.953L20.954 10.594ZM3.751 23.39L14.063 13.031L16.876 15.844L3.751 23.39Z" fill="black"/>
</svg>
